<?xml version="1.0" encoding="iso-8859-1"?>
<!-- Generator: Adobe Illustrator 17.1.0, SVG Export Plug-In . SVG Version: 6.00 Build 0)  -->
<!DOCTYPE svg PUBLIC "-//W3C//DTD SVG 1.1//EN" "http://www.w3.org/Graphics/SVG/1.1/DTD/svg11.dtd">
<svg version="1.1" id="Capa_1" xmlns="http://www.w3.org/2000/svg" xmlns:xlink="http://www.w3.org/1999/xlink" x="0px" y="0px"
	 viewBox="0 0 50 50" style="enable-background:new 0 0 50 50;" xml:space="preserve">
<path d="M383.88,0h-79.668c-2.761,0-5,2.239-5,5v5.006h-85.248c-2.761,0-5,2.239-5,5v5.972h-90.063v-5.665c0-2.761-2.239-5-5-5
	H90.763c-2.761,0-5,2.239-5,5v454.33c0,2.761,2.239,5,5,5h23.138c2.761,0,5-2.239,5-5V216.098h95.063c2.761,0,5-2.239,5-5v-5.971
	h84.865c2.761,0,5-2.239,5-5c0-0.032-0.009-0.062-0.009-0.094c0.252-0.597,0.392-1.253,0.392-1.942v-2.97h74.668
	c2.761,0,5-2.239,5-5V5C388.88,2.239,386.641,0,383.88,0z M108.901,464.643H95.763V216.098h13.138V464.643z M304.211,69.998
	c-2.761,0-5,2.239-5,5v120.129h-80.248V78c0-2.761-2.239-5-5-5s-5,2.239-5,5v128.098h-90.063V69.489c0-2.761-2.239-5-5-5
	s-5,2.239-5,5v136.609H95.763V20.313h13.138V39.47c0,2.761,2.239,5,5,5s5-2.239,5-5v-8.492h90.063v7.518c0,2.761,2.239,5,5,5
	s5-2.239,5-5v-18.49h80.248v18.49c0,2.761,2.239,5,5,5s5-2.239,5-5V10h69.668v175.12h-69.668V74.998
	C309.211,72.236,306.973,69.998,304.211,69.998z"/>
<g>
</g>
<g>
</g>
<g>
</g>
<g>
</g>
<g>
</g>
<g>
</g>
<g>
</g>
<g>
</g>
<g>
</g>
<g>
</g>
<g>
</g>
<g>
</g>
<g>
</g>
<g>
</g>
<g>
</g>
</svg>
